<svg id="Checkout_Process" viewBox="0 0 96 96" xmlns="http://www.w3.org/2000/svg" data-name="Checkout Process"><path d="m60.831 24.913c-.17-2.442-2.221-4.356-4.669-4.356h-8.443v-7.278c0-5.116-4.162-9.278-9.277-9.278s-9.278 4.162-9.278 9.278v12.659c-.553 0-1-.447-1-1v-4.381h-7.443c-2.449 0-4.499 1.914-4.668 4.357l-2.758 39.988h23.816c-.518-.898-.569-2.035-.015-2.996l5.375-9.312c.826-1.432 2.665-1.925 4.098-1.099l2.46 1.421c1.132-.822 2.337-1.522 3.598-2.089v-2.828c0-1.654 1.346-3 3-3h6.591l-1.385-20.087zm-16.112.024v-4.381h-13.556v-7.278c0-4.014 3.265-7.278 7.278-7.278s7.277 3.265 7.277 7.278v12.659c-.553 0-1-.447-1-1z"/><path d="m39.751 66.902h-26.595l-.14 2.034c-.124 1.796.509 3.581 1.737 4.896 1.229 1.316 2.966 2.071 4.767 2.071h17.195c-.116-1.141.424-2.299 1.478-2.908l2.446-1.411c-.072-.698-.108-1.396-.108-2.085s.036-1.387.108-2.085l-.889-.513z"/><path d="m82.807 74.729-3.61-2.084c.181-1.046.272-2.101.272-3.145s-.092-2.099-.272-3.145l3.61-2.084c.229-.133.397-.352.466-.607s.033-.529-.1-.759l-5.375-9.311c-.133-.229-.352-.397-.607-.466s-.529-.033-.759.1l-3.626 2.094c-1.637-1.369-3.458-2.427-5.431-3.152v-4.17c0-.553-.447-1-1-1h-10.75c-.553 0-1 .447-1 1v4.17c-1.973.726-3.794 1.783-5.431 3.152l-3.626-2.094c-.23-.133-.505-.168-.759-.1-.256.068-.475.236-.607.466l-5.375 9.311c-.133.229-.168.503-.1.759s.236.475.466.607l3.61 2.084c-.181 1.046-.272 2.101-.272 3.145s.092 2.099.272 3.145l-3.61 2.084c-.229.133-.397.352-.466.607s-.033.529.1.759l5.375 9.311c.133.229.352.397.607.466.254.066.528.031.759-.1l3.626-2.094c1.637 1.369 3.458 2.427 5.431 3.152v4.17c0 .553.447 1 1 1h10.75c.553 0 1-.447 1-1v-4.17c1.973-.726 3.794-1.783 5.431-3.152l3.626 2.094c.229.131.503.166.759.1.256-.068.475-.236.607-.466l5.375-9.311c.133-.229.168-.503.1-.759s-.236-.475-.466-.607zm-11.807-5.229c0 5.514-4.486 10-10 10s-10-4.486-10-10 4.486-10 10-10 10 4.486 10 10z"/><path d="m59.748 74.308c-.256 0-.512-.098-.707-.293l-3.605-3.605c-.391-.391-.391-1.023 0-1.414s1.023-.391 1.414 0l2.898 2.898 5.402-5.401c.391-.391 1.023-.391 1.414 0s.391 1.023 0 1.414l-6.109 6.108c-.195.195-.451.293-.707.293z"/></svg>